<svg xmlns="http://www.w3.org/2000/svg" width="1400" height="520" viewBox="0 0 1400 520" role="img" aria-labelledby="title desc">
  <title id="title">MRTC-RDTC single-engine pipeline</title>
  <desc id="desc">A block carries a configured ZERO or DELTA predictor mode through residual mapping, internal k selection, bit packing, packet buffering, and the decoder loopback path. RAW fallback is path-dependent.</desc>
  <defs>
    <marker id="arrow" viewBox="0 0 10 10" refX="9" refY="5" markerWidth="7" markerHeight="7" orient="auto-start-reverse"><path d="M0 0 L10 5 L0 10 z" fill="#334155"/></marker>
    <style>.title{font:700 28px Arial,sans-serif;fill:#0f172a}.sub{font:400 14px Arial,sans-serif;fill:#475569}.label{font:700 16px Arial,sans-serif;fill:#0f172a}.small{font:400 13px Arial,sans-serif;fill:#334155}.box{stroke:#334155;stroke-width:2;rx:6}.arrow{stroke:#334155;stroke-width:2.5;fill:none;marker-end:url(#arrow)}</style>
  </defs>
  <rect width="1400" height="520" fill="#f8fafc"/>
  <text x="55" y="46" class="title">Single-Engine lossless codec pipeline</text>
  <text x="55" y="72" class="sub">Input capture overlaps computation; variable-length output is decoupled from AXI backpressure.</text>

  <rect x="45" y="135" width="120" height="105" class="box" fill="#dbeafe"/>
  <text x="105" y="170" text-anchor="middle" class="label">AXI input</text>
  <text x="105" y="197" text-anchor="middle" class="small">I16Q16</text>
  <text x="105" y="218" text-anchor="middle" class="small">1024 samples</text>
  <path d="M165 187 H205" class="arrow"/>

  <rect x="210" y="120" width="155" height="135" class="box" fill="#dcfce7"/>
  <text x="287" y="158" text-anchor="middle" class="label">Ping-pong</text>
  <text x="287" y="180" text-anchor="middle" class="label">block buffer</text>
  <rect x="242" y="201" width="38" height="31" fill="#fff" stroke="#16a34a"/>
  <rect x="294" y="201" width="38" height="31" fill="#fff" stroke="#16a34a"/>
  <text x="287" y="246" text-anchor="middle" class="small">capture / compute overlap</text>
  <path d="M365 187 H405" class="arrow"/>

  <rect x="410" y="120" width="160" height="135" class="box" fill="#fef3c7"/>
  <text x="490" y="157" text-anchor="middle" class="label">Predictor</text>
  <text x="490" y="181" text-anchor="middle" class="small">configured ZERO / DELTA</text>
  <text x="490" y="209" text-anchor="middle" class="label">Residual map</text>
  <text x="490" y="233" text-anchor="middle" class="small">signed to non-negative</text>
  <path d="M570 187 H610" class="arrow"/>

  <rect x="615" y="120" width="160" height="135" class="box" fill="#ede9fe"/>
  <text x="695" y="157" text-anchor="middle" class="label">Prefix cost</text>
  <text x="695" y="181" text-anchor="middle" class="small">candidate k values</text>
  <text x="695" y="209" text-anchor="middle" class="label">Internal k-select</text>
  <text x="695" y="233" text-anchor="middle" class="small">payload-cost estimate</text>
  <path d="M775 187 H815" class="arrow"/>

  <rect x="820" y="105" width="180" height="165" class="box" fill="#fee2e2"/>
  <text x="910" y="145" text-anchor="middle" class="label">Lane-parallel</text>
  <text x="910" y="168" text-anchor="middle" class="label">bitpacker</text>
  <text x="910" y="197" text-anchor="middle" class="small">Rice payload</text>
  <line x1="845" y1="215" x2="975" y2="215" stroke="#dc2626"/>
  <text x="910" y="241" text-anchor="middle" class="small">64-byte header</text>
  <path d="M1000 187 H1040" class="arrow"/>

  <rect x="1045" y="120" width="150" height="135" class="box" fill="#cffafe"/>
  <text x="1120" y="158" text-anchor="middle" class="label">Packet buffer</text>
  <text x="1120" y="184" text-anchor="middle" class="small">variable length</text>
  <text x="1120" y="207" text-anchor="middle" class="small">backpressure isolation</text>
  <path d="M1195 187 H1235" class="arrow"/>

  <rect x="1240" y="135" width="120" height="105" class="box" fill="#dbeafe"/>
  <text x="1300" y="170" text-anchor="middle" class="label">AXI output</text>
  <text x="1300" y="197" text-anchor="middle" class="small">128-bit beats</text>
  <text x="1300" y="218" text-anchor="middle" class="small">tkeep / tlast</text>

  <path d="M287 255 V315 H910 V270" stroke="#d97706" stroke-width="2.5" fill="none" marker-end="url(#arrow)"/>
  <text x="700" y="306" text-anchor="middle" class="small" fill="#92400e">RAW fallback only on supporting encoder paths; packet framing remains unchanged</text>

  <rect x="210" y="370" width="950" height="100" rx="6" fill="#ffffff" stroke="#64748b" stroke-width="2"/>
  <text x="235" y="402" class="label">Decoder loopback</text>
  <rect x="405" y="390" width="150" height="52" rx="5" fill="#f1f5f9" stroke="#64748b"/>
  <text x="480" y="421" text-anchor="middle" class="small">Header parser</text>
  <path d="M555 416 H610" class="arrow"/>
  <rect x="615" y="390" width="170" height="52" rx="5" fill="#f1f5f9" stroke="#64748b"/>
  <text x="700" y="413" text-anchor="middle" class="small">Rice / RAW decode</text>
  <text x="700" y="431" text-anchor="middle" class="small">residual unmap</text>
  <path d="M785 416 H840" class="arrow"/>
  <rect x="845" y="390" width="185" height="52" rx="5" fill="#f1f5f9" stroke="#64748b"/>
  <text x="937" y="413" text-anchor="middle" class="small">I/Q reconstruction</text>
  <text x="937" y="431" text-anchor="middle" class="small">bit-exact comparison</text>
  <text x="1178" y="425" class="sub">Packet contents remain stable across stalls.</text>
</svg>
